<?xml version="1.0" encoding="UTF-8"?><svg id="b" xmlns="http://www.w3.org/2000/svg" viewBox="0 0 192.3 202"><g id="c"><g id="d"><polygon points="106.6 52.8 106.6 97.9 106.6 202 85.7 202 85.7 97.9 85.7 52.8 91.8 52.8 96.1 0 100.7 52.8 106.6 52.8" style="fill:#fff; fill-rule:evenodd; stroke-width:0px;"/><polygon points="163.7 145.1 163.7 202 155.6 202 142.8 202 142.8 145.1 163.7 145.1" style="fill:#fff; fill-rule:evenodd; stroke-width:0px;"/><rect y="128" width="21.2" height="74" style="fill:#fff; stroke-width:0px;"/><polygon points="78 97.9 78 202 56.9 202 56.9 151.2 56.9 97.9 78 97.9" style="fill:#fff; fill-rule:evenodd; stroke-width:0px;"/><rect x="171.1" y="128" width="21.2" height="74" style="fill:#fff; stroke-width:0px;"/><polygon points="49.5 145.1 49.5 202 36.7 202 28.6 202 28.6 145.1 49.5 145.1" style="fill:#fff; fill-rule:evenodd; stroke-width:0px;"/><polygon points="135.2 97.9 135.2 151.2 135.2 202 114 202 114 97.9 135.2 97.9" style="fill:#fff; fill-rule:evenodd; stroke-width:0px;"/></g></g></svg>