<?xml version="1.0" encoding="UTF-8"?><svg id="b" xmlns="http://www.w3.org/2000/svg" viewBox="0 0 252.9 177"><g id="c"><path d="M247.6,27.6c-2.9-10.9-11.5-19.5-22.4-22.4C205.5,0,126.4,0,126.4,0c0,0-79.1,0-98.8,5.3-10.9,2.9-19.5,11.5-22.4,22.4C0,47.4,0,88.5,0,88.5c0,0,0,41.1,5.3,60.9,2.9,10.9,11.5,19.5,22.4,22.4,19.7,5.3,98.8,5.3,98.8,5.3,0,0,79.1,0,98.8-5.3,10.9-2.9,19.5-11.5,22.4-22.4,5.3-19.7,5.3-60.9,5.3-60.9,0,0,0-41.1-5.3-60.9ZM101.2,126.4V50.6l65.7,37.9-65.7,37.9Z" style="fill:#fff; stroke-width:0px;"/></g></svg>