<?xml version="1.0" encoding="UTF-8"?><svg id="b" xmlns="http://www.w3.org/2000/svg" viewBox="0 0 915.9 744.5"><g id="c"><g id="d"><path d="M280.3,449.7c-45.6,37.2-91.1,74.5-136.6,111.9-32.5,26.7-86.7,79.4-129.5,38-13.8-13.4-17.1-33.5-12-51.6,7.6-27,29.7-42,50.8-58.1,48.7-37.2,97.4-74.5,146.1-111.7,54.3-41.6,108.7-83.1,163-124.7-31.3,0-62.6.1-93.9.2-31.6,0-65.7,3.4-97.1-.8-22.8-3-44.3-18.5-39.4-44.1,4.2-22.1,25-39.1,46.1-43.9,28.1-6.4,60-2.7,88.7-2.7,33.3,0,66.6,0,100-.1,64.7,0,129.4-.1,194-.1-26-22.8-53.5-43.9-80.3-65.7-18.7-15.2-59.7-36.9-49.3-66.7,9.1-26.1,44.9-33.9,68.5-27.1,15,4.3,26.4,14.9,38.5,24.2,15.1,11.6,30.1,23.1,45.2,34.7,60.2,46.2,120.4,92.5,180.6,138.8,47.1,36.2,92.5,71.6,120.9,125.2,57.2,108.1,33.1,236.4-50.9,322.6-82.2,84.3-209.8,115.1-323.2,86.2-64-16.3-123.9-53.2-166.8-103.4-20.1-23.5-36.2-50.4-47-79.4-12.5-33.5-14.5-66-16.5-101.4ZM591.1,605.7c55.5-.4,99.2-14.8,137.1-45.6,70.7-57.4,84.9-154.7,33.2-226.6-70.1-97.4-222.4-108.4-307.1-22.2-58.9,59.9-67.4,146.1-19.5,212.9,39.8,55.5,96.1,79.7,156.4,81.4Z" style="fill:#fff; stroke-width:0px;"/><path d="M590.7,533.5c-52-1.4-102-38.5-113.7-90.1-11.2-49.7,17.5-99,61.9-121,84.4-41.9,208.7,24.2,179.5,127-16.1,56.8-72.2,84.2-127.7,84.1Z" style="fill:#fff; stroke-width:0px;"/></g></g></svg>